<svg xmlns="http://www.w3.org/2000/svg" xmlns:xlink="http://www.w3.org/1999/xlink" version="1.1" data-diagram-type="ACTIVITY" style="width:1126px;height:886px;background:#FFFFFF;" width="1126.5px" height="886.5px" viewBox="0 0 1126 886" zoomAndPan="magnify" preserveAspectRatio="none" contentStyleType="text/css"><?plantuml 1.2026.8?><defs/><g font-family="sans-serif" lengthAdjust="spacing"><g class="title" data-source-line="7"><text x="304.343" y="51.8" fill="#000" font-size="21" textLength="515.29" font-weight="700">RentBuild | Rental Operator — Select / Change Plan</text></g><ellipse cx="568.598" cy="95.414" rx="15" ry="15" fill="#222" style="stroke:#222;stroke-width:1.5;"/><rect x="348.483" y="140.414" width="440.229" height="86.602" fill="#E8F0FB" style="stroke:#334155;stroke-width:0.75;" rx="18.75" ry="18.75"/><text x="363.483" y="178.771" fill="#000" font-size="22.5" textLength="81.299">1. Plans</text><text x="363.483" y="207.072" fill="#000" font-size="22.5" textLength="410.229">US15: current status and reference plans</text><rect x="341.282" y="294.828" width="454.633" height="86.602" fill="#E8F0FB" style="stroke:#334155;stroke-width:0.75;" rx="18.75" ry="18.75"/><text x="356.282" y="333.185" fill="#000" font-size="22.5" textLength="152.567">2. Confirmation</text><text x="356.282" y="361.485" fill="#000" font-size="22.5" textLength="424.633">US16 / US17: selected plan + demo notice</text><polygon points="330.337,449.241,806.858,449.241,824.858,505.843,806.858,562.444,330.337,562.444,312.337,505.843,330.337,449.241" fill="#FFF3BF" style="stroke:#64748B;stroke-width:0.75;stroke-linejoin:miter;stroke-miterlimit:10;"/><text x="330.337" y="472.598" fill="#000" font-size="22.5" textLength="182.615">3. Valid selection?</text><text x="330.337" y="500.899" fill="#000" font-size="22.5" textLength="375.183">Active plan exists? Same valid plan is</text><text x="330.337" y="529.2" fill="#000" font-size="22.5" textLength="476.521">rejected. Expired period may begin a new demo</text><text x="330.337" y="557.5" fill="#000" font-size="22.5" textLength="68.785">month.</text><text x="268.977" y="501.558" fill="#000" font-size="19.5" textLength="43.361">Valid</text><text x="824.858" y="501.558" fill="#000" font-size="19.5" textLength="164.769">Unavailable / failed</text><rect x="48.499" y="577.444" width="497.677" height="114.902" fill="#E8F0FB" style="stroke:#334155;stroke-width:0.75;" rx="18.75" ry="18.75"/><text x="63.499" y="615.801" fill="#000" font-size="22.5" textLength="151.326">4. Demo saved</text><text x="63.499" y="644.102" fill="#000" font-size="22.5" textLength="467.677">POST new record or PUT current record. Keep</text><text x="63.499" y="672.403" fill="#000" font-size="22.5" textLength="352.694">valid period; refresh expired period.</text><rect x="607.241" y="577.444" width="465.234" height="114.902" fill="#E8F0FB" style="stroke:#334155;stroke-width:0.75;" rx="18.75" ry="18.75"/><text x="622.241" y="615.801" fill="#000" font-size="22.5" textLength="170.057">Alternative / retry</text><text x="622.241" y="644.102" fill="#000" font-size="22.5" textLength="435.234">Load or save error: show translated reason,</text><text x="622.241" y="672.403" fill="#000" font-size="22.5" textLength="410.208">preserve selection, and retry after reload.</text><polygon points="568.598,701.347,586.598,719.347,568.598,737.347,550.598,719.347,568.598,701.347" fill="#FFF3BF" style="stroke:#64748B;stroke-width:0.75;stroke-linejoin:miter;stroke-miterlimit:10;"/><ellipse cx="568.598" cy="783.847" rx="16.5" ry="16.5" fill="none" style="stroke:#222;stroke-width:1.5;"/><ellipse cx="568.598" cy="783.847" rx="9" ry="9" fill="#222" style="stroke:#222;stroke-width:1.5;"/><line x1="568.598" y1="110.414" x2="568.598" y2="140.414" style="stroke:#181818;stroke-width:1.5;"/><polygon points="562.598,125.414,568.598,140.414,574.598,125.414,568.598,131.414" fill="#181818" style="stroke:#181818;stroke-width:1.5;stroke-linejoin:miter;stroke-miterlimit:10;"/><line x1="568.598" y1="227.016" x2="568.598" y2="294.828" style="stroke:#181818;stroke-width:1.5;"/><polygon points="562.598,279.828,568.598,294.828,574.598,279.828,568.598,285.828" fill="#181818" style="stroke:#181818;stroke-width:1.5;stroke-linejoin:miter;stroke-miterlimit:10;"/><text x="574.598" y="264.293" fill="#000" font-size="19.5" textLength="178.871">Select available plan</text><line x1="312.337" y1="505.843" x2="297.337" y2="505.843" style="stroke:#181818;stroke-width:1.5;"/><line x1="297.337" y1="505.843" x2="297.337" y2="577.444" style="stroke:#181818;stroke-width:1.5;"/><polygon points="291.337,562.444,297.337,577.444,303.337,562.444,297.337,568.444" fill="#181818" style="stroke:#181818;stroke-width:1.5;stroke-linejoin:miter;stroke-miterlimit:10;"/><line x1="824.858" y1="505.843" x2="839.858" y2="505.843" style="stroke:#181818;stroke-width:1.5;"/><line x1="839.858" y1="505.843" x2="839.858" y2="577.444" style="stroke:#181818;stroke-width:1.5;"/><polygon points="833.858,562.444,839.858,577.444,845.858,562.444,839.858,568.444" fill="#181818" style="stroke:#181818;stroke-width:1.5;stroke-linejoin:miter;stroke-miterlimit:10;"/><line x1="297.337" y1="692.347" x2="297.337" y2="719.347" style="stroke:#181818;stroke-width:1.5;"/><line x1="297.337" y1="719.347" x2="550.598" y2="719.347" style="stroke:#181818;stroke-width:1.5;"/><polygon points="535.598,713.347,550.598,719.347,535.598,725.347,541.598,719.347" fill="#181818" style="stroke:#181818;stroke-width:1.5;stroke-linejoin:miter;stroke-miterlimit:10;"/><line x1="839.858" y1="692.347" x2="839.858" y2="719.347" style="stroke:#181818;stroke-width:1.5;"/><line x1="839.858" y1="719.347" x2="586.598" y2="719.347" style="stroke:#181818;stroke-width:1.5;"/><polygon points="601.598,713.347,586.598,719.347,601.598,725.347,595.598,719.347" fill="#181818" style="stroke:#181818;stroke-width:1.5;stroke-linejoin:miter;stroke-miterlimit:10;"/><line x1="568.598" y1="381.429" x2="568.598" y2="449.241" style="stroke:#181818;stroke-width:1.5;"/><polygon points="562.598,434.241,568.598,449.241,574.598,434.241,568.598,440.241" fill="#181818" style="stroke:#181818;stroke-width:1.5;stroke-linejoin:miter;stroke-miterlimit:10;"/><text x="574.598" y="418.707" fill="#000" font-size="19.5" textLength="115.962">Confirm once</text><line x1="568.598" y1="737.347" x2="568.598" y2="767.347" style="stroke:#181818;stroke-width:1.5;"/><polygon points="562.598,752.347,568.598,767.347,574.598,752.347,568.598,758.347" fill="#181818" style="stroke:#181818;stroke-width:1.5;stroke-linejoin:miter;stroke-miterlimit:10;"/><g class="caption" data-source-line="25"><text x="16.5" y="837.146" fill="#000" font-size="21" textLength="1090.975">SUPPLEMENT: PR12 FRONTEND DEMO; NO PAYMENT OR AUTOMATIC BILLING. FORMAL MOCKUP EXPORT</text><text x="511.23" y="863.561" fill="#000" font-size="21" textLength="101.514">PENDING.</text></g><?plantuml-src RLFRRjf047ttLupKXoPgufG0IGHI8swkK01RNAfMucLYZs6JPTVQNKFIYzIFw1VsIpfUQ8BKFjcQCtFcp9dPjp119xO4YKJb5kCHM5sQb23LQal6KGQvqHieBPbSwjsvBUzjQaJXX5OsVB1Q1VPHg08DRi2kCTCxeLQGexHqX6IKOobTf9MRu8PWXihEo8Zy_papyPMWrZm2EyRetIjKFwuh1DGQZS099mccf5ot53A3x_uV9SG56NJQmE-Vls16ab875z1Rerhj1pyYmvJj4EuPlWK0NKmVLqQNAkjfoVLl1ZVH-wXR8TfaP0xHUhrHQpOvsXUuqIhxfooAedetEaeuhhvgN3Tkki6Fm3eqBcZLGg_9BjLYLcks82sDuJc0OLTQG9M1ePmuncigginsSFxXxrouHI7nNkwXTj2w3A6dLIxC1gkTUTOh7fy_rosmlegtN6N3Ezx1HeFIJgJaMG-be5KL43cSr4FuX59aXrAcl5sgJkgFo9FGax3EtlAAUSzRd-hZWYSozE3RXJ1uAeIf-l8Hw0ms-0ptj18A41Jjl8wbOg_SEZm5joO59xxjARlOQeJGhuHQt5AsL4ayc_igGoax2-ngifY_6BUFXd17L2pLGP5lswwSD6JNBFfOJjWEYEyNJXRgrSyBFceXQQ-W8nqPjNyw5ypYpFDIZJJwvfKi83vOmmQlzGwSuIr9h7msXFncpfQguBvaEF75nxF3RfaBC6T-_fTCMQbHMVLKd2w25FtRWzaYIKQ3yM0oRq4ohLr2D8qdyy6a3_t1E6x398QaywN28Pv2Pp6Fnvtvi0VTuMWqd7mC8Ogduyu8nd7lRf70u7CIJ-Vi9JDKy1y0?></g></svg>