<svg xmlns="http://www.w3.org/2000/svg" xmlns:xlink="http://www.w3.org/1999/xlink" version="1.1" data-diagram-type="ACTIVITY" style="width:1018px;height:831px;background:#FFFFFF;" width="1018.5px" height="831px" viewBox="0 0 1018 831" zoomAndPan="magnify" preserveAspectRatio="none" contentStyleType="text/css"><?plantuml 1.2026.8?><defs/><g font-family="sans-serif" lengthAdjust="spacing"><g class="title" data-source-line="7"><text x="186.76" y="51.8" fill="#000" font-size="21" textLength="642.992" font-weight="700">RentBuild | Rental Operator | Record condition and maintenance</text></g><ellipse cx="529.912" cy="95.414" rx="15" ry="15" fill="#222" style="stroke:#222;stroke-width:1.5;"/><rect x="453.021" y="140.414" width="153.783" height="86.602" fill="#E8F0FB" style="stroke:#334155;stroke-width:0.75;" rx="18.75" ry="18.75"/><text x="468.021" y="178.771" fill="#000" font-size="22.5" textLength="123.783">1. Entry / list</text><text x="468.021" y="207.072" fill="#000" font-size="22.5" textLength="120.059">US23-US26</text><rect x="293.571" y="294.828" width="472.683" height="86.602" fill="#E8F0FB" style="stroke:#334155;stroke-width:0.75;" rx="18.75" ry="18.75"/><text x="308.571" y="333.185" fill="#000" font-size="22.5" textLength="251.411">2. Selected action / detail</text><text x="308.571" y="361.485" fill="#000" font-size="22.5" textLength="442.683">Prior Figma mockup; states described below</text><polygon points="326.978,449.241,732.846,449.241,750.846,477.542,732.846,505.843,326.978,505.843,308.978,477.542,326.978,449.241" fill="#FFF3BF" style="stroke:#64748B;stroke-width:0.75;stroke-linejoin:miter;stroke-miterlimit:10;"/><text x="326.978" y="472.598" fill="#000" font-size="22.5" textLength="111.302">3. Decision</text><text x="326.978" y="500.899" fill="#000" font-size="22.5" textLength="405.868">Intervention complete + no other blocks?</text><text x="158.301" y="473.257" fill="#000" font-size="19.5" textLength="150.677">Valid / authorized</text><text x="750.846" y="473.257" fill="#000" font-size="19.5" textLength="171.282">Invalid / unavailable</text><rect x="24" y="520.843" width="514.069" height="86.602" fill="#E8F0FB" style="stroke:#334155;stroke-width:0.75;" rx="18.75" ry="18.75"/><text x="39" y="559.2" fill="#000" font-size="22.5" textLength="180.099">4. Expected result</text><text x="39" y="587.5" fill="#000" font-size="22.5" textLength="484.069">Equipment released only when fit and unblocked</text><rect x="568.069" y="520.843" width="421.443" height="114.902" fill="#E8F0FB" style="stroke:#334155;stroke-width:0.75;" rx="18.75" ry="18.75"/><text x="583.069" y="559.2" fill="#000" font-size="22.5" textLength="163.839">Alternative route</text><text x="583.069" y="587.5" fill="#000" font-size="22.5" textLength="391.443">Incomplete / other blocking work: retain</text><text x="583.069" y="615.801" fill="#000" font-size="22.5" textLength="97.526">restriction</text><polygon points="529.912,644.745,547.912,662.745,529.912,680.745,511.912,662.745,529.912,644.745" fill="#FFF3BF" style="stroke:#64748B;stroke-width:0.75;stroke-linejoin:miter;stroke-miterlimit:10;"/><ellipse cx="529.912" cy="727.245" rx="16.5" ry="16.5" fill="none" style="stroke:#222;stroke-width:1.5;"/><ellipse cx="529.912" cy="727.245" rx="9" ry="9" fill="#222" style="stroke:#222;stroke-width:1.5;"/><line x1="529.912" y1="110.414" x2="529.912" y2="140.414" style="stroke:#181818;stroke-width:1.5;"/><polygon points="523.912,125.414,529.912,140.414,535.912,125.414,529.912,131.414" fill="#181818" style="stroke:#181818;stroke-width:1.5;stroke-linejoin:miter;stroke-miterlimit:10;"/><line x1="529.912" y1="227.016" x2="529.912" y2="294.828" style="stroke:#181818;stroke-width:1.5;"/><polygon points="523.912,279.828,529.912,294.828,535.912,279.828,529.912,285.828" fill="#181818" style="stroke:#181818;stroke-width:1.5;stroke-linejoin:miter;stroke-miterlimit:10;"/><text x="535.912" y="264.293" fill="#000" font-size="19.5" textLength="132.234">Select / inspect</text><line x1="308.978" y1="477.542" x2="281.034" y2="477.542" style="stroke:#181818;stroke-width:1.5;"/><line x1="281.034" y1="477.542" x2="281.034" y2="520.843" style="stroke:#181818;stroke-width:1.5;"/><polygon points="275.034,505.843,281.034,520.843,287.034,505.843,281.034,511.843" fill="#181818" style="stroke:#181818;stroke-width:1.5;stroke-linejoin:miter;stroke-miterlimit:10;"/><line x1="750.846" y1="477.542" x2="778.79" y2="477.542" style="stroke:#181818;stroke-width:1.5;"/><line x1="778.79" y1="477.542" x2="778.79" y2="520.843" style="stroke:#181818;stroke-width:1.5;"/><polygon points="772.79,505.843,778.79,520.843,784.79,505.843,778.79,511.843" fill="#181818" style="stroke:#181818;stroke-width:1.5;stroke-linejoin:miter;stroke-miterlimit:10;"/><line x1="281.034" y1="607.444" x2="281.034" y2="662.745" style="stroke:#181818;stroke-width:1.5;"/><line x1="281.034" y1="662.745" x2="511.912" y2="662.745" style="stroke:#181818;stroke-width:1.5;"/><polygon points="496.912,656.745,511.912,662.745,496.912,668.745,502.912,662.745" fill="#181818" style="stroke:#181818;stroke-width:1.5;stroke-linejoin:miter;stroke-miterlimit:10;"/><line x1="778.79" y1="635.745" x2="778.79" y2="662.745" style="stroke:#181818;stroke-width:1.5;"/><line x1="778.79" y1="662.745" x2="547.912" y2="662.745" style="stroke:#181818;stroke-width:1.5;"/><polygon points="562.912,656.745,547.912,662.745,562.912,668.745,556.912,662.745" fill="#181818" style="stroke:#181818;stroke-width:1.5;stroke-linejoin:miter;stroke-miterlimit:10;"/><line x1="529.912" y1="381.429" x2="529.912" y2="449.241" style="stroke:#181818;stroke-width:1.5;"/><polygon points="523.912,434.241,529.912,449.241,535.912,434.241,529.912,440.241" fill="#181818" style="stroke:#181818;stroke-width:1.5;stroke-linejoin:miter;stroke-miterlimit:10;"/><text x="535.912" y="418.707" fill="#000" font-size="19.5" textLength="137.643">Submit or query</text><line x1="529.912" y1="680.745" x2="529.912" y2="710.745" style="stroke:#181818;stroke-width:1.5;"/><polygon points="523.912,695.745,529.912,710.745,535.912,695.745,529.912,701.745" fill="#181818" style="stroke:#181818;stroke-width:1.5;stroke-linejoin:miter;stroke-miterlimit:10;"/><g class="caption" data-source-line="27"><text x="20.539" y="780.545" fill="#000" font-size="21" textLength="975.434">LOGICAL SUPPLEMENT WITH PRIOR MOCKUPS — NOT A NEW FIGJAM EXPORT OR EXECUTION</text><text x="435.33" y="806.959" fill="#000" font-size="21" textLength="145.852">SCREENSHOT</text></g><?plantuml-src jLFRRjf047ttLupKXoIgW1986e7K2eYTkWMCC3HvG8e6Uu0jwrrdTmsb5waVqI_ibtHCejHI-zeNN-PspfdB2OpHYHt1HA9oyz4Gh2vCGf1ejIFZA8MLqHaKbinAwdqjGw4SALG9rJzPhJox5If7WndO3QPwBzGQLYWjLJmfhR2GBj3AZJ4ZY57Pc8nO_Jic5by8cXSLPyyOlV_ZQbNpSW7DTjjpmac2AIdNBuHCuTln6oL4EHbqsXmjYJPfgIqLJcW5g5AeAAgKnOJR8jm1lde0VKosQwCBbGwqv4el_AlWLT0lFLoFp9ErrMetBoxOUYqmOuo_qe8WQFM3Ia0r-xBzkdtLzxvxrg5nNgTP1ryvSu06I67TGitZyrQD7vTTxmGcHd3IF0H3ApB4v3k0rfApZIojYGpNP6l91dD7fjtOqxA6ULxBTBAzBtBRe2mtPF4UvGDtYqnZL9bhhjPUxGt492bn32-KpVchwtNEwqzMtekoGzp21a_EeP0BzKWf4EiCeGGgyYwm5aUMGsnYn9ApbiHRz3y4-FpECnxvC_rYcGa73F9Ga3bqFR62qrOThYaHbfalLCYApOvJIXs9pd99Zk0bA0tQRSZ0KZASVNi6_AVWz2DAaR9WBDn66zx4z8ndsMdpe3xdZqrXJhp42_NCXYsIqB9BAtc0VLbenRJApIlK4O3IhaTyC70QgjqJHA5mnqt5fQGZHayoLVLughnHZahspvGRLRxb0UwrsNOOcWV3EfcKC-8uBaRYtUUxSpht4cvkANqOtOI3tX3Y-MGoz4V-U0QtuUmTJAPXD8LHDFWmdyJmwyTF64SpwC7OluKWl7dV6u5_DuccC-0m_yuVp6TXD5weU33r_N7yBfhz1W00?></g></svg>