<svg xmlns="http://www.w3.org/2000/svg" xmlns:xlink="http://www.w3.org/1999/xlink" version="1.1" data-diagram-type="CLASS" style="width:1222px;height:1293px;background:#FFFFFF;" width="1222.813px" height="1293.229px" viewBox="0 0 1222 1293" zoomAndPan="magnify" preserveAspectRatio="none" contentStyleType="text/css"><?plantuml 1.2026.8?><defs/><g font-family="sans-serif" lengthAdjust="spacing"><g class="title" data-source-line="1"><text x="386.498" y="31.324" fill="#000" font-size="18.958" textLength="441.355" font-weight="700" font-family="Arial">RentBuild — Rentals — Proposed MySQL design</text></g><!--cluster Rentals--><g class="cluster" data-qualified-name="Rentals" id="ent0001" data-source-line="7"><path d="M199.063,222.217 L268.9,222.217 A5.078,5.078 0 0 1 272.285,225.602 L281.765,252.142 L951.979,252.142 A3.385,3.385 0 0 1 955.365,255.528 L955.365,1253.415 A3.385,3.385 0 0 1 951.979,1256.8 L199.063,1256.8 A3.385,3.385 0 0 1 195.677,1253.415 L195.677,225.602 A3.385,3.385 0 0 1 199.063,222.217" style="stroke:#000;stroke-width:2.031;" fill="none"/><line x1="195.677" y1="252.142" x2="281.765" y2="252.142" style="stroke:#000;stroke-width:2.031;"/><text x="201.094" y="242.708" fill="#000" font-size="18.958" textLength="68.483" font-weight="700" font-family="Arial">Rentals</text></g><!--class rental_requests--><g class="entity" data-qualified-name="Rentals.rental_requests" id="ent0002" data-source-line="8"><rect x="565.365" y="269.613" width="368.192" height="275.011" fill="#F1F1F1" style="stroke:#181818;stroke-width:0.677;" rx="3.385" ry="3.385"/><text x="684.12" y="294.166" fill="#000" font-size="18.958" textLength="130.681" font-family="Arial">rental_requests</text><line x1="566.719" y1="304.955" x2="932.202" y2="304.955" style="stroke:#181818;stroke-width:0.677;"/><text x="573.49" y="328.154" fill="#000" font-size="18.958" textLength="152.778" font-family="Arial">*id : BIGINT «PK»</text><line x1="566.719" y1="337.588" x2="932.202" y2="337.588" style="stroke:#181818;stroke-width:1.354;"/><text x="573.49" y="360.788" fill="#000" font-size="18.958" textLength="250.791" font-family="Arial">*equipment_id : BIGINT «FK»</text><text x="573.49" y="382.588" fill="#000" font-size="18.958" textLength="351.942" font-family="Arial">*construction_company_id : BIGINT «FK»</text><text x="573.49" y="404.388" fill="#000" font-size="18.958" textLength="230.749" font-family="Arial">*provider_id : BIGINT «FK»</text><text x="573.49" y="426.188" fill="#000" font-size="18.958" textLength="158.054" font-family="Arial">*start_date : DATE</text><text x="573.49" y="447.988" fill="#000" font-size="18.958" textLength="152.815" font-family="Arial">*end_date : DATE</text><text x="573.49" y="469.789" fill="#000" font-size="18.958" textLength="200.173" font-family="Arial">*status : VARCHAR(20)</text><text x="573.49" y="491.589" fill="#000" font-size="18.958" textLength="244.45" font-family="Arial">*requested_at : TIMESTAMP</text><text x="573.49" y="513.389" fill="#000" font-size="18.958" textLength="110.63" font-family="Arial">notes : TEXT</text><text x="573.49" y="535.189" fill="#000" font-size="18.958" textLength="292.928" font-family="Arial">rejection_reason : VARCHAR(255)</text></g><!--class rental_contracts--><g class="entity" data-qualified-name="Rentals.rental_contracts" id="ent0003" data-source-line="21"><rect x="565.365" y="647.425" width="368.192" height="296.811" fill="#F1F1F1" style="stroke:#181818;stroke-width:0.677;" rx="3.385" ry="3.385"/><text x="682.019" y="671.979" fill="#000" font-size="18.958" textLength="134.884" font-family="Arial">rental_contracts</text><line x1="566.719" y1="682.767" x2="932.202" y2="682.767" style="stroke:#181818;stroke-width:0.677;"/><text x="573.49" y="705.966" fill="#000" font-size="18.958" textLength="152.778" font-family="Arial">*id : BIGINT «PK»</text><line x1="566.719" y1="715.401" x2="932.202" y2="715.401" style="stroke:#181818;stroke-width:1.354;"/><text x="573.49" y="738.6" fill="#000" font-size="18.958" textLength="309.758" font-family="Arial">*request_id : BIGINT «FK, UNIQUE»</text><text x="573.49" y="760.4" fill="#000" font-size="18.958" textLength="250.791" font-family="Arial">*equipment_id : BIGINT «FK»</text><text x="573.49" y="782.201" fill="#000" font-size="18.958" textLength="351.942" font-family="Arial">*construction_company_id : BIGINT «FK»</text><text x="573.49" y="804.001" fill="#000" font-size="18.958" textLength="230.749" font-family="Arial">*provider_id : BIGINT «FK»</text><text x="573.49" y="825.801" fill="#000" font-size="18.958" textLength="158.054" font-family="Arial">*start_date : DATE</text><text x="573.49" y="847.601" fill="#000" font-size="18.958" textLength="152.815" font-family="Arial">*end_date : DATE</text><text x="573.49" y="869.401" fill="#000" font-size="18.958" textLength="266.592" font-family="Arial">*total_amount : DECIMAL(12,2)</text><text x="573.49" y="891.202" fill="#000" font-size="18.958" textLength="111.649" font-family="Arial">terms : TEXT</text><text x="573.49" y="913.002" fill="#000" font-size="18.958" textLength="200.173" font-family="Arial">*status : VARCHAR(20)</text><text x="573.49" y="934.802" fill="#000" font-size="18.958" textLength="223.362" font-family="Arial">*created_at : TIMESTAMP</text></g><!--class deliveries--><g class="entity" data-qualified-name="Rentals.deliveries" id="ent0004" data-source-line="35"><rect x="217.344" y="1046.904" width="330.21" height="187.81" fill="#F1F1F1" style="stroke:#181818;stroke-width:0.677;" rx="3.385" ry="3.385"/><text x="342.408" y="1071.458" fill="#000" font-size="18.958" textLength="80.082" font-family="Arial">deliveries</text><line x1="218.698" y1="1082.246" x2="546.2" y2="1082.246" style="stroke:#181818;stroke-width:0.677;"/><text x="225.469" y="1105.446" fill="#000" font-size="18.958" textLength="152.778" font-family="Arial">*id : BIGINT «PK»</text><line x1="218.698" y1="1114.88" x2="546.2" y2="1114.88" style="stroke:#181818;stroke-width:1.354;"/><text x="225.469" y="1138.079" fill="#000" font-size="18.958" textLength="313.96" font-family="Arial">*contract_id : BIGINT «FK, UNIQUE»</text><text x="225.469" y="1159.879" fill="#000" font-size="18.958" textLength="237.062" font-family="Arial">*delivered_at : TIMESTAMP</text><text x="225.469" y="1181.68" fill="#000" font-size="18.958" textLength="301.352" font-family="Arial">*delivery_location : VARCHAR(150)</text><text x="225.469" y="1203.48" fill="#000" font-size="18.958" textLength="254.984" font-family="Arial">received_by : VARCHAR(120)</text><text x="225.469" y="1225.28" fill="#000" font-size="18.958" textLength="171.745" font-family="Arial">observations : TEXT</text></g><!--class equipment_returns--><g class="entity" data-qualified-name="Rentals.equipment_returns" id="ent0005" data-source-line="44"><rect x="595.833" y="1046.904" width="336.598" height="187.81" fill="#F1F1F1" style="stroke:#181818;stroke-width:0.677;" rx="3.385" ry="3.385"/><text x="685.091" y="1071.458" fill="#000" font-size="18.958" textLength="158.082" font-family="Arial">equipment_returns</text><line x1="597.188" y1="1082.246" x2="931.077" y2="1082.246" style="stroke:#181818;stroke-width:0.677;"/><text x="603.958" y="1105.446" fill="#000" font-size="18.958" textLength="152.778" font-family="Arial">*id : BIGINT «PK»</text><line x1="597.188" y1="1114.88" x2="931.077" y2="1114.88" style="stroke:#181818;stroke-width:1.354;"/><text x="603.958" y="1138.079" fill="#000" font-size="18.958" textLength="313.96" font-family="Arial">*contract_id : BIGINT «FK, UNIQUE»</text><text x="603.958" y="1159.879" fill="#000" font-size="18.958" textLength="230.74" font-family="Arial">*returned_at : TIMESTAMP</text><text x="603.958" y="1181.68" fill="#000" font-size="18.958" textLength="320.348" font-family="Arial">condition_on_return : VARCHAR(255)</text><text x="603.958" y="1203.48" fill="#000" font-size="18.958" textLength="217.086" font-family="Arial">has_damage : BOOLEAN</text><text x="603.958" y="1225.28" fill="#000" font-size="18.958" textLength="206.542" font-family="Arial">inspection_notes : TEXT</text></g><!--class company_profiles--><g class="entity" data-qualified-name="company_profiles" id="ent0006" data-source-line="54"><rect x="9.479" y="59.717" width="296.86" height="78.809" fill="#EEE" style="stroke:#181818;stroke-width:0.677;" rx="3.385" ry="3.385"/><text x="13.542" y="84.27" fill="#000" font-size="18.958" textLength="288.735" font-family="Arial">company_profiles [external owner]</text><line x1="10.833" y1="95.059" x2="304.985" y2="95.059" style="stroke:#181818;stroke-width:0.677;"/><text x="17.604" y="118.258" fill="#000" font-size="18.958" textLength="152.778" font-family="Arial">*id : BIGINT «PK»</text><line x1="10.833" y1="127.692" x2="304.985" y2="127.692" style="stroke:#181818;stroke-width:0.677;"/></g><!--class equipments--><g class="entity" data-qualified-name="equipments" id="ent0007" data-source-line="57"><rect x="362.24" y="59.717" width="246.289" height="78.809" fill="#EEE" style="stroke:#181818;stroke-width:0.677;" rx="3.385" ry="3.385"/><text x="366.302" y="84.27" fill="#000" font-size="18.958" textLength="238.164" font-family="Arial">equipments [external owner]</text><line x1="363.594" y1="95.059" x2="607.174" y2="95.059" style="stroke:#181818;stroke-width:0.677;"/><text x="370.365" y="118.258" fill="#000" font-size="18.958" textLength="152.778" font-family="Arial">*id : BIGINT «PK»</text><line x1="363.594" y1="127.692" x2="607.174" y2="127.692" style="stroke:#181818;stroke-width:0.677;"/></g><!--class incidents--><g class="entity" data-qualified-name="incidents" id="ent0008" data-source-line="60"><rect x="980.417" y="1101.748" width="223.1" height="78.809" fill="#EEE" style="stroke:#181818;stroke-width:0.677;" rx="3.385" ry="3.385"/><text x="984.479" y="1126.302" fill="#000" font-size="18.958" textLength="214.975" font-family="Arial">incidents [external owner]</text><line x1="981.771" y1="1137.09" x2="1202.163" y2="1137.09" style="stroke:#181818;stroke-width:0.677;"/><text x="988.542" y="1160.289" fill="#000" font-size="18.958" textLength="152.778" font-family="Arial">*id : BIGINT «PK»</text><line x1="981.771" y1="1169.724" x2="1202.163" y2="1169.724" style="stroke:#181818;stroke-width:0.677;"/></g><!--class provider_profiles--><g class="entity" data-qualified-name="provider_profiles" id="ent0009" data-source-line="63"><rect x="660.833" y="59.717" width="288.427" height="78.809" fill="#EEE" style="stroke:#181818;stroke-width:0.677;" rx="3.385" ry="3.385"/><text x="664.896" y="84.27" fill="#000" font-size="18.958" textLength="280.302" font-family="Arial">provider_profiles [external owner]</text><line x1="662.188" y1="95.059" x2="947.906" y2="95.059" style="stroke:#181818;stroke-width:0.677;"/><text x="668.958" y="118.258" fill="#000" font-size="18.958" textLength="152.778" font-family="Arial">*id : BIGINT «PK»</text><line x1="662.188" y1="127.692" x2="947.906" y2="127.692" style="stroke:#181818;stroke-width:0.677;"/></g><!--link equipments to rental_requests--><g class="link" data-entity-1="ent0007" data-entity-2="ent0002" id="lnk10" data-source-line="66" data-link-type="crowfoot"><path d="M525.462,146.587 C554.089,179.683 574.311,203.089 615.694,250.945" style="stroke:#181818;stroke-width:1.354;" fill="none" id="equipments-rental_requests" codeLine="66"/><line x1="517.822" y1="146.034" x2="526.015" y2="138.947" style="stroke:#181818;stroke-width:1.354;"/><line x1="520.48" y1="149.107" x2="528.673" y2="142.02" style="stroke:#181818;stroke-width:1.354;"/><line x1="525.462" y1="146.587" x2="518.375" y2="138.394" style="stroke:#181818;stroke-width:1.354;"/><line x1="624.551" y1="261.188" x2="637.783" y2="264.068" style="stroke:#181818;stroke-width:1.354;"/><line x1="624.551" y1="261.188" x2="625.492" y2="274.697" style="stroke:#181818;stroke-width:1.354;"/><line x1="624.551" y1="261.188" x2="631.638" y2="269.383" style="stroke:#181818;stroke-width:1.354;"/><ellipse cx="619.237" cy="255.042" rx="5.417" ry="5.417" fill="none" style="stroke:#181818;stroke-width:1.354;"/><text x="572.135" y="196.75" fill="#000" font-size="17.604" textLength="105.702" font-family="Arial">equipment_id</text></g><!--link company_profiles to rental_requests--><g class="link" data-entity-1="ent0006" data-entity-2="ent0002" id="lnk11" data-source-line="67" data-link-type="crowfoot"><path d="M221.821,144.079 C257.368,166.504 296.454,187.252 343.281,200.55 C383.013,211.83 490.601,195.675 528.802,211.384 C562.331,225.169 575.327,230.871 603.941,254.149" style="stroke:#181818;stroke-width:1.354;" fill="none" id="company_profiles-rental_requests" codeLine="67"/><line x1="214.349" y1="145.771" x2="220.13" y2="136.608" style="stroke:#181818;stroke-width:1.354;"/><line x1="217.785" y1="147.938" x2="223.566" y2="138.776" style="stroke:#181818;stroke-width:1.354;"/><line x1="221.821" y1="144.079" x2="212.658" y2="138.299" style="stroke:#181818;stroke-width:1.354;"/><line x1="614.445" y1="262.695" x2="627.976" y2="263.229" style="stroke:#181818;stroke-width:1.354;"/><line x1="614.445" y1="262.695" x2="617.721" y2="275.834" style="stroke:#181818;stroke-width:1.354;"/><line x1="614.445" y1="262.695" x2="622.849" y2="269.531" style="stroke:#181818;stroke-width:1.354;"/><ellipse cx="608.143" cy="257.567" rx="5.417" ry="5.417" fill="none" style="stroke:#181818;stroke-width:1.354;"/><text x="344.635" y="196.75" fill="#000" font-size="17.604" textLength="199.628" font-family="Arial">construction_company_id</text></g><!--link provider_profiles to rental_requests--><g class="link" data-entity-1="ent0009" data-entity-2="ent0002" id="lnk12" data-source-line="68" data-link-type="crowfoot"><path d="M796.196,149.053 C790.183,182.149 787.383,197.545 778.676,245.401" style="stroke:#181818;stroke-width:1.354;" fill="none" id="provider_profiles-rental_requests" codeLine="68"/><line x1="791.835" y1="142.755" x2="802.494" y2="144.692" style="stroke:#181818;stroke-width:1.354;"/><line x1="791.109" y1="146.752" x2="801.767" y2="148.689" style="stroke:#181818;stroke-width:1.354;"/><line x1="796.196" y1="149.053" x2="798.132" y2="138.394" style="stroke:#181818;stroke-width:1.354;"/><line x1="776.252" y1="258.724" x2="782.306" y2="270.837" style="stroke:#181818;stroke-width:1.354;"/><line x1="776.252" y1="258.724" x2="766.319" y2="267.928" style="stroke:#181818;stroke-width:1.354;"/><line x1="776.252" y1="258.724" x2="774.313" y2="269.383" style="stroke:#181818;stroke-width:1.354;"/><ellipse cx="777.706" cy="250.73" rx="5.417" ry="5.417" fill="none" style="stroke:#181818;stroke-width:1.354;"/><text x="791.51" y="196.75" fill="#000" font-size="17.604" textLength="87.092" font-family="Arial">provider_id</text></g><!--link rental_requests to rental_contracts--><g class="link" data-entity-1="ent0002" data-entity-2="ent0003" id="lnk13" data-source-line="69" data-link-type="association"><path d="M749.531,555.856 C749.531,588.817 749.531,593.042 749.531,626.476" style="stroke:#181818;stroke-width:1.354;" fill="none" id="rental_requests-rental_contracts" codeLine="69"/><line x1="744.115" y1="550.44" x2="754.948" y2="550.44" style="stroke:#181818;stroke-width:1.354;"/><line x1="744.115" y1="554.502" x2="754.948" y2="554.502" style="stroke:#181818;stroke-width:1.354;"/><line x1="749.531" y1="555.856" x2="749.531" y2="545.023" style="stroke:#181818;stroke-width:1.354;"/><line x1="749.531" y1="631.893" x2="749.531" y2="646.789" style="stroke:#181818;stroke-width:1.354;"/><ellipse cx="749.531" cy="631.893" rx="5.417" ry="5.417" fill="none" style="stroke:#181818;stroke-width:1.354;"/><line x1="754.948" y1="641.372" x2="744.115" y2="641.372" style="stroke:#181818;stroke-width:1.354;"/><text x="750.885" y="603" fill="#000" font-size="17.604" textLength="82.21" font-family="Arial">request_id</text></g><!--link equipments to rental_contracts--><g class="link" data-entity-1="ent0007" data-entity-2="ent0003" id="lnk14" data-source-line="70" data-link-type="crowfoot"><path d="M457.701,148.014 C446.651,168.8 439.63,185.858 434.01,211.384 C402.133,355.968 369.539,411.231 434.01,544.509 C462.692,603.794 493.471,638.72 545.62,677.598" style="stroke:#181818;stroke-width:1.354;" fill="none" id="equipments-rental_contracts" codeLine="70"/><line x1="455.461" y1="140.688" x2="465.027" y2="145.774" style="stroke:#181818;stroke-width:1.354;"/><line x1="453.554" y1="144.276" x2="463.12" y2="149.361" style="stroke:#181818;stroke-width:1.354;"/><line x1="457.701" y1="148.014" x2="462.786" y2="138.448" style="stroke:#181818;stroke-width:1.354;"/><line x1="556.476" y1="685.692" x2="570.018" y2="685.653" style="stroke:#181818;stroke-width:1.354;"/><line x1="556.476" y1="685.692" x2="560.305" y2="698.681" style="stroke:#181818;stroke-width:1.354;"/><line x1="556.476" y1="685.692" x2="565.161" y2="692.167" style="stroke:#181818;stroke-width:1.354;"/><ellipse cx="549.962" cy="680.836" rx="5.417" ry="5.417" fill="none" style="stroke:#181818;stroke-width:1.354;"/><text x="435.365" y="414.094" fill="#000" font-size="17.604" textLength="105.702" font-family="Arial">equipment_id</text></g><!--link company_profiles to rental_contracts--><g class="link" data-entity-1="ent0006" data-entity-2="ent0003" id="lnk15" data-source-line="71" data-link-type="crowfoot"><path d="M145.405,148.989 C126.325,231.431 96.092,418.53 183.49,544.509 C270.59,670.053 411.972,727.49 541.471,758.839" style="stroke:#181818;stroke-width:1.354;" fill="none" id="company_profiles-rental_contracts" codeLine="71"/><line x1="141.349" y1="142.49" x2="151.904" y2="144.933" style="stroke:#181818;stroke-width:1.354;"/><line x1="140.433" y1="146.448" x2="150.988" y2="148.891" style="stroke:#181818;stroke-width:1.354;"/><line x1="145.405" y1="148.989" x2="147.848" y2="138.435" style="stroke:#181818;stroke-width:1.354;"/><line x1="554.632" y1="762.025" x2="567.073" y2="756.677" style="stroke:#181818;stroke-width:1.354;"/><line x1="554.632" y1="762.025" x2="563.25" y2="772.471" style="stroke:#181818;stroke-width:1.354;"/><line x1="554.632" y1="762.025" x2="565.161" y2="764.574" style="stroke:#181818;stroke-width:1.354;"/><ellipse cx="546.735" cy="760.114" rx="5.417" ry="5.417" fill="none" style="stroke:#181818;stroke-width:1.354;"/><text x="184.844" y="414.094" fill="#000" font-size="17.604" textLength="199.628" font-family="Arial">construction_company_id</text></g><!--link provider_profiles to rental_contracts--><g class="link" data-entity-1="ent0009" data-entity-2="ent0003" id="lnk16" data-source-line="72" data-link-type="crowfoot"><path d="M894.382,144.145 C922.752,162.034 942.338,180.536 958.073,211.384 C1025.321,343.279 1008.529,405.314 958.073,544.509 C944.883,580.895 938.525,596.252 914.745,627.71" style="stroke:#181818;stroke-width:1.354;" fill="none" id="provider_profiles-rental_contracts" codeLine="72"/><line x1="886.912" y1="145.838" x2="892.69" y2="136.674" style="stroke:#181818;stroke-width:1.354;"/><line x1="890.348" y1="148.005" x2="896.126" y2="138.841" style="stroke:#181818;stroke-width:1.354;"/><line x1="894.382" y1="144.145" x2="885.219" y2="138.367" style="stroke:#181818;stroke-width:1.354;"/><line x1="906.58" y1="638.512" x2="906.528" y2="652.054" style="stroke:#181818;stroke-width:1.354;"/><line x1="906.58" y1="638.512" x2="893.565" y2="642.255" style="stroke:#181818;stroke-width:1.354;"/><line x1="906.58" y1="638.512" x2="900.047" y2="647.154" style="stroke:#181818;stroke-width:1.354;"/><ellipse cx="911.479" cy="632.031" rx="5.417" ry="5.417" fill="none" style="stroke:#181818;stroke-width:1.354;"/><text x="1002.76" y="414.094" fill="#000" font-size="17.604" textLength="87.092" font-family="Arial">provider_id</text></g><!--link rental_contracts to deliveries--><g class="link" data-entity-1="ent0003" data-entity-2="ent0004" id="lnk17" data-source-line="73" data-link-type="association"><path d="M583.852,951.733 C546.748,986.372 530.973,1001.097 497.241,1032.595" style="stroke:#181818;stroke-width:1.354;" fill="none" id="rental_contracts-deliveries" codeLine="73"/><line x1="584.115" y1="944.077" x2="591.508" y2="951.996" style="stroke:#181818;stroke-width:1.354;"/><line x1="581.145" y1="946.849" x2="588.538" y2="954.768" style="stroke:#181818;stroke-width:1.354;"/><line x1="583.852" y1="951.733" x2="591.771" y2="944.34" style="stroke:#181818;stroke-width:1.354;"/><line x1="493.282" y1="1036.291" x2="482.395" y2="1046.458" style="stroke:#181818;stroke-width:1.354;"/><ellipse cx="493.282" cy="1036.291" rx="5.417" ry="5.417" fill="none" style="stroke:#181818;stroke-width:1.354;"/><line x1="490.051" y1="1046.72" x2="482.657" y2="1038.802" style="stroke:#181818;stroke-width:1.354;"/><text x="545.052" y="1002.479" fill="#000" font-size="17.604" textLength="86.113" font-family="Arial">contract_id</text></g><!--link rental_contracts to equipment_returns--><g class="link" data-entity-1="ent0003" data-entity-2="ent0005" id="lnk18" data-source-line="74" data-link-type="association"><path d="M756.406,955.163 C757.909,989.803 758.129,994.666 759.497,1026.164" style="stroke:#181818;stroke-width:1.354;" fill="none" id="rental_contracts-equipment_returns" codeLine="74"/><line x1="750.76" y1="949.986" x2="761.583" y2="949.517" style="stroke:#181818;stroke-width:1.354;"/><line x1="750.936" y1="954.045" x2="761.759" y2="953.575" style="stroke:#181818;stroke-width:1.354;"/><line x1="756.406" y1="955.163" x2="755.936" y2="944.34" style="stroke:#181818;stroke-width:1.354;"/><line x1="759.732" y1="1031.576" x2="760.378" y2="1046.458" style="stroke:#181818;stroke-width:1.354;"/><ellipse cx="759.732" cy="1031.576" rx="5.417" ry="5.417" fill="none" style="stroke:#181818;stroke-width:1.354;"/><line x1="765.555" y1="1040.811" x2="754.732" y2="1041.281" style="stroke:#181818;stroke-width:1.354;"/><text x="759.01" y="1002.479" fill="#000" font-size="17.604" textLength="86.113" font-family="Arial">contract_id</text></g><!--link rental_contracts to incidents--><g class="link" data-entity-1="ent0003" data-entity-2="ent0008" id="lnk19" data-source-line="75" data-link-type="crowfoot"><path d="M911.174,958.703 C968.847,1016.377 998.633,1046.162 1036.861,1084.391" style="stroke:#181818;stroke-width:1.354;" fill="none" id="rental_contracts-incidents" codeLine="75"/><line x1="907.343" y1="954.873" x2="896.81" y2="944.34" style="stroke:#181818;stroke-width:1.354;"/><ellipse cx="907.343" cy="954.873" rx="5.417" ry="5.417" fill="none" style="stroke:#181818;stroke-width:1.354;"/><line x1="896.81" y1="952" x2="904.471" y2="944.34" style="stroke:#181818;stroke-width:1.354;"/><line x1="1046.437" y1="1093.966" x2="1059.842" y2="1095.881" style="stroke:#181818;stroke-width:1.354;"/><line x1="1046.437" y1="1093.966" x2="1048.352" y2="1107.372" style="stroke:#181818;stroke-width:1.354;"/><line x1="1046.437" y1="1093.966" x2="1054.097" y2="1101.626" style="stroke:#181818;stroke-width:1.354;"/><ellipse cx="1040.691" cy="1088.221" rx="5.417" ry="5.417" fill="none" style="stroke:#181818;stroke-width:1.354;"/><text x="952.656" y="1002.479" fill="#000" font-size="17.604" textLength="86.113" font-family="Arial">contract_id</text></g><g class="footer" data-source-line="76"><text x="310.978" y="1281.69" fill="#888" font-size="13.542" textLength="592.395" font-family="Arial">Proposed AV2 schema; reference domain preserved; no deployed tables or migrations are claimed</text></g><?plantuml-src rLPTJzim57tFhx3O2vke19ruAGWfGDYgqV9LqAHfYbpxjlL8xCnsO1qWxKVi5-wNx2ODYKCQlXucBK-DxpdNlkVutjGA6m4v1MbtKn5nykVNx_oDHYR_VQnLeWnmCfYVdHmI3aPCfMSkXKoefZ4nCyhLjP1JCa4AE14E4vf6za19EwGn45yB6hdnH92Dz-lUJ70WJ6WMkMmMKMDyQxKOfnRwJCapyHF8kfTGTacdG5QAKwwG6u_WWs_2picApfT33TzJC1R3r907QmKZUzuHmKcFxFO_z8SZihrz_6bdfmnsEWuEkIA9CL5OPnouZ7S43sgiJfaLIePCnGcLyySPYLPNA85-76KirJRar0A2zlrHu1vDyfO8icngSFt2Fztxw9-kTjVVEk524E0XjGWQzGV1sSWV79SGgInaz57mULGkQlW6Y_eqKAEactvpSv7_Rfadg8tLbDLDAHTVvKfHGKExDN8-x9-S1pKD_qiBhSfKeh5APURHVh3N7_Y7gnlTjMvbfGKTDtnwqdw6_hMON_UFGoIkG0jOE5UzligpUyUVPrgnMViTBI7pC5ACPguv5MziEYLhO8187exdBiHLHOqDwAiyIqtGkY3LJT9WKoqNkZHM_u4yYvtQrS5iNEGtEU_N3BoiNxDdHWtUmJWRhhZlqT5Xu0_Be90cARg-CHJkl3llNfdxVi6Mc8W8SL_W1zvEIIEYhYNehxbI3TIR87zomPPALUrGgjoIsuc_8AkG33kuDMaLVa7ESYmyBaOJzfmzgYflRpiTTTFuoFLgyyvhIDvAQvb_NlEShIcSWUWzZEQas-Ruxpd3lBqy5_-I-bpUQmjqSoofi0eN9JfpikUsTIkXEK2UugdyVDNjhECd2bjLL__X_8ikCMm6CTt2cYOuLIK3mbLCXSIA81jzmBVmiuzdJo8rHuwbuqm9fKaifheOZ5H3zWzDnC3_0W00?></g></svg>