<svg xmlns="http://www.w3.org/2000/svg" xmlns:xlink="http://www.w3.org/1999/xlink" version="1.1" data-diagram-type="CLASS" style="width:1045px;height:1099px;background:#FFFFFF;" width="1045.417px" height="1099.583px" viewBox="0 0 1045 1099" zoomAndPan="magnify" preserveAspectRatio="none" contentStyleType="text/css"><?plantuml 1.2026.8?><defs/><g font-family="sans-serif" lengthAdjust="spacing"><g class="title" data-source-line="1"><text x="297.047" y="31.324" fill="#000" font-size="18.958" textLength="442.41" font-weight="700" font-family="Arial">RentBuild — Profiles — Proposed MySQL design</text></g><!--cluster Profiles--><g class="cluster" data-qualified-name="Profiles" id="ent0001" data-source-line="7"><path d="M317.552,222.217 L388.445,222.217 A5.078,5.078 0 0 1 391.83,225.602 L401.309,252.142 L757.656,252.142 A3.385,3.385 0 0 1 761.042,255.528 L761.042,897.269 A3.385,3.385 0 0 1 757.656,900.654 L317.552,900.654 A3.385,3.385 0 0 1 314.167,897.269 L314.167,225.602 A3.385,3.385 0 0 1 317.552,222.217" style="stroke:#000;stroke-width:2.031;" fill="none"/><line x1="314.167" y1="252.142" x2="401.309" y2="252.142" style="stroke:#000;stroke-width:2.031;"/><text x="319.583" y="242.708" fill="#000" font-size="18.958" textLength="69.539" font-weight="700" font-family="Arial">Profiles</text></g><!--class company_profiles--><g class="entity" data-qualified-name="Profiles.company_profiles" id="ent0002" data-source-line="8"><rect x="381.875" y="269.613" width="311.28" height="318.611" fill="#F1F1F1" style="stroke:#181818;stroke-width:0.677;" rx="3.385" ry="3.385"/><text x="463.223" y="294.166" fill="#000" font-size="18.958" textLength="148.584" font-family="Arial">company_profiles</text><line x1="383.229" y1="304.955" x2="691.801" y2="304.955" style="stroke:#181818;stroke-width:0.677;"/><text x="390" y="328.154" fill="#000" font-size="18.958" textLength="152.778" font-family="Arial">*id : BIGINT «PK»</text><line x1="383.229" y1="337.588" x2="691.801" y2="337.588" style="stroke:#181818;stroke-width:1.354;"/><text x="390" y="360.788" fill="#000" font-size="18.958" textLength="283.403" font-family="Arial">*user_id : BIGINT «FK, UNIQUE»</text><text x="390" y="382.588" fill="#000" font-size="18.958" textLength="295.03" font-family="Arial">*company_name : VARCHAR(150)</text><text x="390" y="404.388" fill="#000" font-size="18.958" textLength="276.016" font-family="Arial">*ruc : VARCHAR(11) «UNIQUE»</text><text x="390" y="426.188" fill="#000" font-size="18.958" textLength="272.896" font-family="Arial">*company_type : VARCHAR(30)</text><text x="390" y="447.988" fill="#000" font-size="18.958" textLength="273.979" font-family="Arial">*contact_phone : VARCHAR(20)</text><text x="390" y="469.789" fill="#000" font-size="18.958" textLength="277.108" font-family="Arial">*contact_email : VARCHAR(120)</text><text x="390" y="491.589" fill="#000" font-size="18.958" textLength="200.173" font-family="Arial">street : VARCHAR(150)</text><text x="390" y="513.389" fill="#000" font-size="18.958" textLength="196.989" font-family="Arial">district : VARCHAR(80)</text><text x="390" y="535.189" fill="#000" font-size="18.958" textLength="170.653" font-family="Arial">city : VARCHAR(80)</text><text x="390" y="556.99" fill="#000" font-size="18.958" textLength="200.192" font-family="Arial">latitude : DECIMAL(9,6)</text><text x="390" y="578.79" fill="#000" font-size="18.958" textLength="216.012" font-family="Arial">longitude : DECIMAL(9,6)</text></g><!--class provider_profiles--><g class="entity" data-qualified-name="Profiles.provider_profiles" id="ent0003" data-source-line="23"><rect x="336.51" y="690.759" width="401.878" height="187.81" fill="#F1F1F1" style="stroke:#181818;stroke-width:0.677;" rx="3.385" ry="3.385"/><text x="467.374" y="715.312" fill="#000" font-size="18.958" textLength="140.151" font-family="Arial">provider_profiles</text><line x1="337.865" y1="726.1" x2="737.034" y2="726.1" style="stroke:#181818;stroke-width:0.677;"/><text x="344.635" y="749.3" fill="#000" font-size="18.958" textLength="152.778" font-family="Arial">*id : BIGINT «PK»</text><line x1="337.865" y1="758.734" x2="737.034" y2="758.734" style="stroke:#181818;stroke-width:1.354;"/><text x="344.635" y="781.933" fill="#000" font-size="18.958" textLength="385.628" font-family="Arial">*company_profile_id : BIGINT «FK, UNIQUE»</text><text x="344.635" y="803.734" fill="#000" font-size="18.958" textLength="155.934" font-family="Arial">description : TEXT</text><text x="344.635" y="825.534" fill="#000" font-size="18.958" textLength="201.256" font-family="Arial">completed_rentals : INT</text><text x="344.635" y="847.334" fill="#000" font-size="18.958" textLength="262.343" font-family="Arial">fulfillment_rate : DECIMAL(5,2)</text><text x="344.635" y="869.134" fill="#000" font-size="18.958" textLength="181.234" font-family="Arial">is_public : BOOLEAN</text></g><!--class equipments--><g class="entity" data-qualified-name="equipments" id="ent0004" data-source-line="33"><rect x="398.125" y="984.613" width="246.289" height="78.809" fill="#EEE" style="stroke:#181818;stroke-width:0.677;" rx="3.385" ry="3.385"/><text x="402.188" y="1009.166" fill="#000" font-size="18.958" textLength="238.164" font-family="Arial">equipments [external owner]</text><line x1="399.479" y1="1019.955" x2="643.06" y2="1019.955" style="stroke:#181818;stroke-width:0.677;"/><text x="406.25" y="1043.154" fill="#000" font-size="18.958" textLength="152.778" font-family="Arial">*id : BIGINT «PK»</text><line x1="399.479" y1="1052.588" x2="643.06" y2="1052.588" style="stroke:#181818;stroke-width:0.677;"/></g><!--class rental_contracts--><g class="entity" data-qualified-name="rental_contracts" id="ent0005" data-source-line="36"><rect x="692.656" y="984.613" width="283.16" height="78.809" fill="#EEE" style="stroke:#181818;stroke-width:0.677;" rx="3.385" ry="3.385"/><text x="696.719" y="1009.166" fill="#000" font-size="18.958" textLength="275.035" font-family="Arial">rental_contracts [external owner]</text><line x1="694.01" y1="1019.955" x2="974.462" y2="1019.955" style="stroke:#181818;stroke-width:0.677;"/><text x="700.781" y="1043.154" fill="#000" font-size="18.958" textLength="152.778" font-family="Arial">*id : BIGINT «PK»</text><line x1="694.01" y1="1052.588" x2="974.462" y2="1052.588" style="stroke:#181818;stroke-width:0.677;"/></g><!--class rental_requests--><g class="entity" data-qualified-name="rental_requests" id="ent0006" data-source-line="39"><rect x="9.479" y="984.613" width="278.957" height="78.809" fill="#EEE" style="stroke:#181818;stroke-width:0.677;" rx="3.385" ry="3.385"/><text x="13.542" y="1009.166" fill="#000" font-size="18.958" textLength="270.832" font-family="Arial">rental_requests [external owner]</text><line x1="10.833" y1="1019.955" x2="287.082" y2="1019.955" style="stroke:#181818;stroke-width:0.677;"/><text x="17.604" y="1043.154" fill="#000" font-size="18.958" textLength="152.778" font-family="Arial">*id : BIGINT «PK»</text><line x1="10.833" y1="1052.588" x2="287.082" y2="1052.588" style="stroke:#181818;stroke-width:0.677;"/></g><!--class users--><g class="entity" data-qualified-name="users" id="ent0007" data-source-line="42"><rect x="440.104" y="59.717" width="194.635" height="78.809" fill="#EEE" style="stroke:#181818;stroke-width:0.677;" rx="3.385" ry="3.385"/><text x="444.167" y="84.27" fill="#000" font-size="18.958" textLength="186.51" font-family="Arial">users [external owner]</text><line x1="441.458" y1="95.059" x2="633.385" y2="95.059" style="stroke:#181818;stroke-width:0.677;"/><text x="448.229" y="118.258" fill="#000" font-size="18.958" textLength="152.778" font-family="Arial">*id : BIGINT «PK»</text><line x1="441.458" y1="127.692" x2="633.385" y2="127.692" style="stroke:#181818;stroke-width:0.677;"/></g><!--link users to company_profiles--><g class="link" data-entity-1="ent0007" data-entity-2="ent0002" id="lnk8" data-source-line="45" data-link-type="association"><path d="M537.604,149.336 C537.604,182.012 537.604,200.266 537.604,249.002" style="stroke:#181818;stroke-width:1.354;" fill="none" id="users-company_profiles" codeLine="45"/><line x1="532.188" y1="143.919" x2="543.021" y2="143.919" style="stroke:#181818;stroke-width:1.354;"/><line x1="532.188" y1="147.981" x2="543.021" y2="147.981" style="stroke:#181818;stroke-width:1.354;"/><line x1="537.604" y1="149.336" x2="537.604" y2="138.502" style="stroke:#181818;stroke-width:1.354;"/><line x1="537.604" y1="254.419" x2="537.604" y2="269.315" style="stroke:#181818;stroke-width:1.354;"/><ellipse cx="537.604" cy="254.419" rx="5.417" ry="5.417" fill="none" style="stroke:#181818;stroke-width:1.354;"/><line x1="543.021" y1="263.898" x2="532.188" y2="263.898" style="stroke:#181818;stroke-width:1.354;"/><text x="538.958" y="196.75" fill="#000" font-size="17.604" textLength="57.738" font-family="Arial">user_id</text></g><!--link company_profiles to provider_profiles--><g class="link" data-entity-1="ent0002" data-entity-2="ent0003" id="lnk9" data-source-line="46" data-link-type="association"><path d="M537.604,599.027 C537.604,633.951 537.604,638.704 537.604,670.053" style="stroke:#181818;stroke-width:1.354;" fill="none" id="company_profiles-provider_profiles" codeLine="46"/><line x1="532.188" y1="593.611" x2="543.021" y2="593.611" style="stroke:#181818;stroke-width:1.354;"/><line x1="532.188" y1="597.673" x2="543.021" y2="597.673" style="stroke:#181818;stroke-width:1.354;"/><line x1="537.604" y1="599.027" x2="537.604" y2="588.194" style="stroke:#181818;stroke-width:1.354;"/><line x1="537.604" y1="675.47" x2="537.604" y2="690.366" style="stroke:#181818;stroke-width:1.354;"/><ellipse cx="537.604" cy="675.47" rx="5.417" ry="5.417" fill="none" style="stroke:#181818;stroke-width:1.354;"/><line x1="543.021" y1="684.949" x2="532.188" y2="684.949" style="stroke:#181818;stroke-width:1.354;"/><text x="538.958" y="646.334" fill="#000" font-size="17.604" textLength="152.661" font-family="Arial">company_profile_id</text></g><!--link provider_profiles to equipments--><g class="link" data-entity-1="ent0003" data-entity-2="ent0004" id="lnk10" data-source-line="47" data-link-type="crowfoot"><path d="M530.457,890.094 C527.938,926.764 527.612,931.709 525.648,960.12" style="stroke:#181818;stroke-width:1.354;" fill="none" id="provider_profiles-equipments" codeLine="47"/><line x1="525.424" y1="884.318" x2="536.232" y2="885.061" style="stroke:#181818;stroke-width:1.354;"/><line x1="525.145" y1="888.371" x2="535.953" y2="889.114" style="stroke:#181818;stroke-width:1.354;"/><line x1="530.457" y1="890.094" x2="531.199" y2="879.286" style="stroke:#181818;stroke-width:1.354;"/><line x1="524.715" y1="973.629" x2="532.073" y2="984.997" style="stroke:#181818;stroke-width:1.354;"/><line x1="524.715" y1="973.629" x2="515.862" y2="983.876" style="stroke:#181818;stroke-width:1.354;"/><line x1="524.715" y1="973.629" x2="523.968" y2="984.437" style="stroke:#181818;stroke-width:1.354;"/><ellipse cx="525.275" cy="965.523" rx="5.417" ry="5.417" fill="none" style="stroke:#181818;stroke-width:1.354;"/><text x="528.125" y="940.188" fill="#000" font-size="17.604" textLength="87.092" font-family="Arial">provider_id</text></g><!--link company_profiles to rental_requests--><g class="link" data-entity-1="ent0002" data-entity-2="ent0006" id="lnk11" data-source-line="48" data-link-type="crowfoot"><path d="M371.823,484.75 C275.135,525.09 168.675,588.004 111.042,690.759 C57.864,785.564 93.296,897.087 121.206,961.952" style="stroke:#181818;stroke-width:1.354;" fill="none" id="company_profiles-rental_requests" codeLine="48"/><line x1="374.736" y1="477.665" x2="378.908" y2="487.663" style="stroke:#181818;stroke-width:1.354;"/><line x1="370.987" y1="479.229" x2="375.158" y2="489.227" style="stroke:#181818;stroke-width:1.354;"/><line x1="371.823" y1="484.75" x2="381.821" y2="480.578" style="stroke:#181818;stroke-width:1.354;"/><line x1="126.558" y1="974.391" x2="138.303" y2="981.131" style="stroke:#181818;stroke-width:1.354;"/><line x1="126.558" y1="974.391" x2="123.376" y2="987.553" style="stroke:#181818;stroke-width:1.354;"/><line x1="126.558" y1="974.391" x2="130.84" y2="984.342" style="stroke:#181818;stroke-width:1.354;"/><ellipse cx="123.347" cy="966.927" rx="5.417" ry="5.417" fill="none" style="stroke:#181818;stroke-width:1.354;"/><text x="112.396" y="791.906" fill="#000" font-size="17.604" textLength="199.628" font-family="Arial">construction_company_id</text></g><!--link provider_profiles to rental_requests--><g class="link" data-entity-1="ent0003" data-entity-2="ent0006" id="lnk12" data-source-line="49" data-link-type="crowfoot"><path d="M375.299,884.913 C314.971,921.584 279.176,943.364 232.444,971.774" style="stroke:#181818;stroke-width:1.354;" fill="none" id="provider_profiles-rental_requests" codeLine="49"/><line x1="377.114" y1="877.471" x2="382.741" y2="886.728" style="stroke:#181818;stroke-width:1.354;"/><line x1="373.643" y1="879.581" x2="379.27" y2="888.838" style="stroke:#181818;stroke-width:1.354;"/><line x1="375.299" y1="884.913" x2="384.556" y2="879.286" style="stroke:#181818;stroke-width:1.354;"/><line x1="220.873" y1="978.809" x2="215.836" y2="991.379" style="stroke:#181818;stroke-width:1.354;"/><line x1="220.873" y1="978.809" x2="207.395" y2="977.494" style="stroke:#181818;stroke-width:1.354;"/><line x1="220.873" y1="978.809" x2="211.616" y2="984.437" style="stroke:#181818;stroke-width:1.354;"/><ellipse cx="227.815" cy="974.588" rx="5.417" ry="5.417" fill="none" style="stroke:#181818;stroke-width:1.354;"/><text x="308.75" y="940.188" fill="#000" font-size="17.604" textLength="87.092" font-family="Arial">provider_id</text></g><!--link company_profiles to rental_contracts--><g class="link" data-entity-1="ent0002" data-entity-2="ent0005" id="lnk13" data-source-line="50" data-link-type="crowfoot"><path d="M700.129,594.245 C726.332,626.88 744.142,654.115 762.396,690.759 C811.417,789.125 825.23,895.946 830.145,959.89" style="stroke:#181818;stroke-width:1.354;" fill="none" id="company_profiles-rental_contracts" codeLine="50"/><line x1="692.514" y1="593.412" x2="700.962" y2="586.63" style="stroke:#181818;stroke-width:1.354;"/><line x1="695.058" y1="596.58" x2="703.505" y2="589.797" style="stroke:#181818;stroke-width:1.354;"/><line x1="700.129" y1="594.245" x2="693.347" y2="585.797" style="stroke:#181818;stroke-width:1.354;"/><line x1="831.183" y1="973.391" x2="840.115" y2="983.57" style="stroke:#181818;stroke-width:1.354;"/><line x1="831.183" y1="973.391" x2="823.912" y2="984.816" style="stroke:#181818;stroke-width:1.354;"/><line x1="831.183" y1="973.391" x2="832.014" y2="984.193" style="stroke:#181818;stroke-width:1.354;"/><ellipse cx="830.56" cy="965.29" rx="5.417" ry="5.417" fill="none" style="stroke:#181818;stroke-width:1.354;"/><text x="824.688" y="791.906" fill="#000" font-size="17.604" textLength="199.628" font-family="Arial">construction_company_id</text></g><!--link provider_profiles to rental_contracts--><g class="link" data-entity-1="ent0003" data-entity-2="ent0005" id="lnk14" data-source-line="51" data-link-type="crowfoot"><path d="M640.73,886.378 C665.05,908.532 683.665,924.19 709.583,943.988 C728.068,958.112 728.478,959.215 747.992,971.403" style="stroke:#181818;stroke-width:1.354;" fill="none" id="provider_profiles-rental_contracts" codeLine="51"/><line x1="633.078" y1="886.735" x2="640.373" y2="878.726" style="stroke:#181818;stroke-width:1.354;"/><line x1="636.081" y1="889.47" x2="643.376" y2="881.462" style="stroke:#181818;stroke-width:1.354;"/><line x1="640.73" y1="886.378" x2="632.721" y2="879.083" style="stroke:#181818;stroke-width:1.354;"/><line x1="759.477" y1="978.576" x2="772.97" y2="977.423" style="stroke:#181818;stroke-width:1.354;"/><line x1="759.477" y1="978.576" x2="764.362" y2="991.206" style="stroke:#181818;stroke-width:1.354;"/><line x1="759.477" y1="978.576" x2="768.666" y2="984.315" style="stroke:#181818;stroke-width:1.354;"/><ellipse cx="752.586" cy="974.272" rx="5.417" ry="5.417" fill="none" style="stroke:#181818;stroke-width:1.354;"/><text x="710.938" y="940.188" fill="#000" font-size="17.604" textLength="87.092" font-family="Arial">provider_id</text></g><g class="footer" data-source-line="52"><text x="222.054" y="1088.311" fill="#888" font-size="13.542" textLength="592.395" font-family="Arial">Proposed AV2 schema; reference domain preserved; no deployed tables or migrations are claimed</text></g><?plantuml-src dLNjJjim5FsVfxXYVm1HgIrYsWf2IbdPAg10AMZID4N6lcqj73kp7LW7I7k8FU6UP3U5jYvf6U1_oJdtd9lxuNZf5K8NjM_cKWdu-_iFd5ZJbmhTv24p3WKSZSvE3q6WamCTkIkfCsPP2cx8XBcHUW1zfXm6YC0-ovNVDzftM8eGMybKY6SIQflLQ2W50fUMgp2QA-PSxBsLbxd7DZVwJFv2g4OPurTiWB0oINC5RYEWGzyW_GXMk4apfaT9DiMPWwSl7sEAimvIG0EQxS_jJWzsTauETdUdOAKIy7A7Dfadxnzim7cdVNhU2eBMftQw-F06NCJTlIznTxMsLLqBM3Rd8LXR8y5dnFme2yKsvxIeG9vndsH3eqDMVI4BKoPLw1tIdBU8VbdQGX8kUOX_261Uz60nf1WrA1T5TfzQU-sZ-73ruyRx03Twi9HmFzTZQkCrZOsTRtBfxPkw_6HKNj9msWfkPUQbqSJjjRxsPlKWDOKUHM8fULeH8f3I5E_dYbnKIc1YcG-_VMkZFYkET4cMNofPJ4pp-FYm5NSUwt8VJQg2FtAP5KeElk5FZrOp1UP6e_q-ha-0lskDpxX02qipKtt8Eob6nzBiBD4kiLxlO2a_TFync99UeL_ixHBL1-W5MW_4kxjAnToLRvF6v6w8Ij1ZI7as6micBIhJnl6tOUyQCx6bXhUbUXLscbOtvyMO9fEmvppB4gymdat2svr3ZT2wRmorSlPlYY_guFYGRhLj2kqZXNC4OUYMqnI8r9jh5DkW3Qrgfio8OZoxB0oDXLGEQFCeDGVCOl7daIcAVm00?></g></svg>